<svg enable-background="new 0 0 1920 551" viewBox="0 0 1920 551" xmlns="http://www.w3.org/2000/svg"><path d="m464.4 204.5c0-.6.5-1 1.4-1h1c6.5 0 12.4-4.9 17.7-14.7 3.1-5.3 6.1-11.1 8.9-17.5s5.2-12.2 7.2-17.3l47.1-117.6c.2-.5.7-.7 1.7-.7h2.5c1.3 0 2.1.2 2.4.7l44.5 106c6 14.3 11 25.5 14.8 33.6 3.8 8.2 7.1 14.3 9.8 18.3 2.7 4.1 5.1 6.6 7.3 7.6s4.7 1.5 7.7 1.5h1.9c1.1 0 1.7.3 1.8 1 0 .8-.5 1.2-1.6 1.2-1.8 0-4 0-6.4-.1s-4.9-.2-7.3-.2c-2.4-.1-4.6-.2-6.6-.2-1.9-.1-3.4-.1-4.5-.1-1 0-2.7 0-5.2.1s-5.3.2-8.3.2c-3 .1-6 .2-8.9.2-2.9.1-5.3.1-7 .1-1 0-1.6-.4-1.8-1.1-.3-.7.1-1.1 1-1.1h5.1c2.5 0 4.5-.5 6-1.4 1-.7 1.5-2.2 1.6-4.4 0-.9-.1-1.9-.2-3-.6-3.9-2.2-9.8-5-17.6s-7.1-18.5-13-32.1l-28.5.7c-2.9 0-6.5 0-10.8-.1s-8.5-.2-12.8-.2c-4.3-.1-8.3-.2-11.9-.2-3.7-.1-6.4-.1-8.2-.1l-4.2 10.3c-1 2.6-2 5.5-3 8.6-1.1 3.1-2 6.3-2.9 9.6s-1.6 6.5-2 9.6c-.5 3.1-.7 6-.7 8.7 0 8 4.5 12 13.6 12.1 1 0 2.2-.1 3.8-.4s2.6-.4 3.2-.4c1.1 0 1.7.4 1.7 1.3 0 .3-.2.6-.5 1-.3.3-1.2.5-2.5.5-1.1 0-3 0-5.6-.1s-5.4-.1-8.3-.1-5.7 0-8.4-.1-4.5-.1-5.5-.1c-.8 0-2 0-3.6.1s-3.4.1-5.4.1c-1.9 0-4 0-6 .1-2.1.1-3.8.1-5.2.1-1.4-.2-1.9-.6-1.9-1.4zm43.9-61.6 41.5-.2h28.9v-.2l-36.4-85.3z"/><path d="m610.9 100.1 2-13.8c.8-6.5 1.3-12.8 1.6-18.9.2-6.1.4-11.4.5-16.1s.1-8.4.1-11.2.2-4.3.5-4.4c.8-.3 3.9-.7 9.2-1.1s12.2-.6 20.6-.6c1.4 0 3.8 0 7.2.1 3.3.1 7 .1 10.9.1s7.8 0 11.6.1 7.1.1 9.9.1c2.6 0 5 0 7.2-.1s4.6-.1 7.3-.1 5.9 0 9.8-.1 8.9-.1 15.1-.1h.2c8.4 0 15.3.2 20.6.6s8.3.8 9.1 1.2c.3.2.5 1.6.5 4.4s.1 6.5.2 11.2.2 10 .5 16.1c.2 6.1.8 12.4 1.8 18.9l1.7 13.8c.1.2.1.4.1.6 0 .5-.2.7-.7.7-.7 0-1.2-.4-1.6-1.2l-2.3-13.8c-1.3-8-2.8-15.1-4.7-21.3s-4.4-11.5-7.5-15.7c-3.1-4.3-7-7.5-11.6-9.8-4.7-2.3-10.2-3.4-16.6-3.4h-19.6v106.4c0 15 .1 26.6.4 34.8.2 8.2.8 14.3 1.7 18.2s2.2 6.2 4 7 4.2 1.1 7.1 1.1h4.4c1 0 1.4.4 1.4 1.1s-.5 1.1-1.4 1.1c-1.8 0-4.1 0-6.7-.1-2.7-.1-5.3-.2-8.1-.2-2.7-.1-5.2-.2-7.5-.2-2.3-.1-3.8-.1-4.6-.1-1 0-2.6 0-4.9.1s-4.8.2-7.5.2c-2.7.1-5.4.2-8.2.2-2.8.1-5 .1-6.6.1-1 0-1.5-.4-1.5-1.1s.5-1.1 1.5-1.1h4.3c2.9 0 5.3-.4 7.1-1.1 1.8-.8 3.1-3.1 4.1-7 .9-3.9 1.5-10 1.7-18.2s.4-19.8.4-34.8v-106.6c-3.4.2-7 .2-10.6.2s-6.8 0-9.6 0c-6.6 0-12.1 1.1-16.7 3.3s-8.4 5.4-11.5 9.7-5.6 9.5-7.6 15.6c-2 6.2-3.6 13.3-4.7 21.3l-1.9 13.8c-.3.9-.8 1.3-1.5 1.3-.6 0-.8-.2-.8-.7 0-.1.1-.3.2-.5z"/><path d="m766.1 204.6c0-.7.7-1.1 2-1.1 3.6 0 6.4-.3 8.5-.8s3.8-1.8 5.1-3.9 2.3-5.3 2.9-9.6 1.2-10.3 1.7-18c.3-4.2.6-9.2.8-15s.3-12 .3-18.5 0-13.1 0-19.6c0-6.6 0-12.7 0-18.4 0-15-.2-26.7-.5-34.9-.4-8.2-1.1-14.3-2.1-18.2s-2.5-6.2-4.4-7-4.3-1.1-7.2-1.1h-4.4c-1 0-1.4-.4-1.4-1.1s.5-1.1 1.4-1.1c1.6 0 3.8 0 6.6.1s5.5.2 8.2.2c2.7.1 5.2.2 7.4.2 2.3.1 3.9.1 4.8.1h6.8c4.1 0 9.1 0 15-.1s12.3-.2 19.2-.2c6.9-.1 13.4-.2 19.6-.2 6.2-.1 11.6-.1 16.3-.1h9.1c2.3 0 4.6.1 6.9.2 2.3.2 3.8.4 4.6.7.6.3 1.5 4.6 2.7 12.8s2.6 19 4.5 32.1l1 8.8c.3.8.1 1.2-.7 1.3-.8 0-1.4-.4-1.8-1.3l-1.2-8.7c-2.3-13.9-8-24.5-17-31.8-9-7.4-20.6-11.1-34.6-11.3h-31.1c-2.8 0-4.8.3-6.1 1s-2.2 2.9-2.7 6.7c-.4 3.3-.6 8.1-.6 14.6v3.3c.1 8.1.1 19.7.1 34.8v16.9h20.3c7.6 0 13.9-.7 18.7-2 4.8-1.4 8.6-3.3 11.4-5.8s4.7-5.4 5.6-8.9c1-3.4 1.4-7.3 1.4-11.5v-5.2c0-1 .4-1.4 1.3-1.4.8 0 1.3.5 1.3 1.4 0 1.8-.1 4.5-.2 8-.2 3.5-.3 7.1-.4 10.8s-.2 7-.4 10-.2 5-.2 6c0 .8.1 2.8.2 6 .2 3.2.3 6.7.4 10.4s.2 7.2.4 10.5.2 5.4.2 6.3c0 1-.4 1.5-1.3 1.5-.8 0-1.3-.5-1.3-1.5v-3.6c0-4.2-.5-8.1-1.4-11.6-1-3.5-2.8-6.5-5.6-9-2.8-2.4-6.6-4.3-11.4-5.7s-11.1-2.1-18.7-2.1h-20.3v46.9c0 9.5-.2 17.3-.6 23.5s-.8 10.3-1.3 12.4c1.8 0 4.9 0 9.2.1s8.9.2 13.8.2c4.9.1 9.5.2 13.8.2 4.3.1 7.4.1 9.4.1 7 0 13.5-1.4 19.6-4.1 6-2.7 11.3-6.4 15.8-11.1s8.1-9.9 10.9-15.9c2.8-5.9 4.6-12 5.4-18.2l1.4-13c.2-.8.9-1.1 2-1.1 1.1.1 1.6.5 1.5 1.4l-1.6 13.2c-1.2 10-2.2 18.1-3 24.5s-1.4 11.4-1.9 15.2-.9 6.4-1.3 8-.9 2.6-1.4 2.9c-.3.3-1.4.5-3.3.6s-4.3.2-7.4.2c-3.1.1-6.5.1-10.3.1s-7.8 0-12 0c-2.2 0-4.7 0-7.6 0s-6.1 0-9.4 0-6.8-.1-10.3-.2-6.9-.2-10.2-.2c-7.8-.2-15.9-.4-24.4-.6l-34.4.9c-1.4.7-2.1.3-2.1-.4z"/><path d="m917 204.6c0-.7.7-1.1 2-1.1 3.6 0 6.4-.3 8.5-.8s3.8-1.8 5.1-3.9 2.3-5.3 2.9-9.7c.6-4.3 1.2-10.4 1.7-18 .3-4.2.6-9.2.7-15.1.1-2.9.1-5.9.1-8.8s-.1-5.9-.1-8.9c-.2-6-.3-11.6-.4-16.8s-.1-9.2-.1-11.9c0-2.8 0-6.3-.1-10.5s-.2-8.6-.2-13.2c-.1-4.6-.2-9-.2-13.4-.1-4.4-.1-8.3-.1-11.7 0-5.6-.1-9.9-.4-12.9-.2-3-.8-5.2-1.8-6.6s-2.5-2.2-4.8-2.4c-2.2-.2-5.3-.4-9.2-.4-1 0-1.4-.4-1.4-1.1s.5-1.1 1.4-1.1c.5 0 2.1 0 5 .1s6 .1 9.3.1 6.5 0 9.5.1 5 .1 6 .1 2.7 0 5.2-.1 5.4-.1 8.5-.1 6.1 0 9.1-.1 5.4-.1 7.2-.1c1 0 1.4.4 1.4 1.1s-.5 1.1-1.4 1.1h-6.8c-4.2 0-7.4.4-9.7 1.1-2.2.8-3.9 3.1-5.1 7s-1.8 10-2 18.2-.2 19.8-.2 34.8v66.7c0 9.5-.2 17.3-.6 23.5s-.8 10.3-1.3 12.4c1.8 0 4.9 0 9.3.1s9 .2 13.9.2c4.9.1 9.5.2 13.9.2 4.4.1 7.6.1 9.5.1 7 0 13.4-1.7 19.3-5.2s11-8 15.4-13.4 7.9-11.5 10.6-18.1 4.5-13 5.2-19.2l2.4-22.2c.2-.8.8-1.1 1.9-1.1 1.1.1 1.6.5 1.4 1.4l-2.6 22.5c-1.2 10.3-2.2 18.9-3 25.9s-1.5 12.7-2 17.2-1 7.8-1.5 9.9-1 3.4-1.4 3.7c-.3.3-1.4.6-3.2.7-1.8.2-4.2.3-7.1.4-3 .1-6.4.2-10.2.2-3.8.1-7.9.1-12.2.1-2.2 0-4.7 0-7.6 0s-6 0-9.3 0-6.6-.1-10.1-.2c-3.4-.1-6.8-.2-10.1-.2-7.8-.2-15.8-.4-24-.6l-34.5.9c-1 .2-1.7-.2-1.7-.9z"/><path d="m1063.1 204.6c0-.7.5-1.1 1.4-1.1h5.1c2.9 0 5.3-.4 7.1-1.1 1.8-.8 3.1-3.1 4.1-7 .9-3.9 1.5-10 1.7-18.2s.4-19.8.4-34.8v-42.8c0-14.9-.1-26.5-.4-34.8-.2-8.2-.8-14.3-1.7-18.2s-2.3-6.2-4.1-7-4.2-1.1-7.1-1.1h-5.1c-1 0-1.4-.4-1.4-1.1s.5-1.1 1.4-1.1c1.6 0 3.8 0 6.7.1s5.7.2 8.6.2c2.9.1 5.5.2 7.9.2 2.4.1 4 .1 4.8.1 1 0 2.6 0 4.8-.1 2.3-.1 4.8-.2 7.7-.2 2.9-.1 5.6-.2 8.3-.2 2.7-.1 4.9-.1 6.7-.1 1 0 1.4.4 1.4 1.1s-.5 1.1-1.4 1.1h-5.1c-2.9 0-5.3.4-7.1 1.1-1.8.8-3.1 3.1-4 7s-1.4 10-1.7 18.2c-.2 8.2-.4 19.8-.4 34.8v42.8c0 15 .1 26.5.4 34.8.2 8.2.8 14.3 1.7 18.2s2.2 6.2 4 7 4.2 1.1 7.1 1.1h5.1c1 0 1.4.4 1.4 1.1s-.5 1.1-1.4 1.1c-1.8 0-4.1 0-6.7-.1-2.7-.1-5.4-.2-8.3-.2-2.9-.1-5.4-.2-7.7-.2-2.3-.1-3.9-.1-4.8-.1-.8 0-2.4 0-4.8.1s-5 .2-7.9.2c-2.9.1-5.7.2-8.5.2-2.8.1-5.1.1-6.7.1-1 0-1.5-.4-1.5-1.1z"/><path d="m1132.4 204.6c0-.7.7-1.1 2-1.1 3.6 0 6.4-.3 8.5-.8s3.8-1.8 5.1-3.9 2.3-5.3 2.9-9.6 1.2-10.3 1.7-18c.3-4.2.6-9.2.8-15s.3-12 .3-18.5 0-13.1 0-19.6c0-6.6 0-12.7 0-18.4 0-15-.2-26.7-.5-34.9-.4-8.2-1-14.3-2.1-18.2-1-3.9-2.5-6.2-4.4-7s-4.3-1.1-7.2-1.1h-4.4c-1 0-1.4-.4-1.4-1.1s.5-1.1 1.4-1.1c1.6 0 3.8 0 6.6.1s5.5.2 8.2.2c2.7.1 5.2.2 7.4.2 2.3.1 3.9.1 4.8.1h6.8c4.1 0 9.1 0 15-.1s12.3-.2 19.2-.2c6.9-.1 13.4-.2 19.6-.2 6.2-.1 11.7-.1 16.3-.1h9.1c2.3 0 4.6.1 6.9.2 2.3.2 3.8.4 4.6.7.6.3 1.5 4.6 2.7 12.8 1.1 8.2 2.6 19 4.5 32.1l1 8.8c.3.8.1 1.2-.7 1.3-.8 0-1.4-.4-1.8-1.3l-1.2-8.7c-2.3-13.9-8-24.5-17-31.8-9-7.4-20.6-11.1-34.6-11.3h-31c-2.8 0-4.8.3-6.2 1-1.3.7-2.2 2.9-2.7 6.7-.4 3.3-.6 8.1-.6 14.6v3.3c.1 8.1.1 19.7.1 34.8v16.9h20.3c7.6 0 13.9-.7 18.7-2 4.8-1.4 8.6-3.3 11.4-5.8s4.7-5.4 5.6-8.9c1-3.4 1.4-7.3 1.4-11.5v-5.2c0-1 .4-1.4 1.3-1.4.8 0 1.2.5 1.2 1.4 0 1.8-.1 4.5-.2 8-.2 3.5-.3 7.1-.4 10.8s-.2 7-.4 10-.2 5-.2 6c0 .8.1 2.8.2 6 .2 3.2.3 6.7.4 10.4s.2 7.2.4 10.5.2 5.4.2 6.3c0 1-.4 1.5-1.2 1.5s-1.3-.5-1.3-1.5v-3.6c0-4.2-.5-8.1-1.4-11.6-1-3.5-2.8-6.5-5.6-9-2.8-2.4-6.6-4.3-11.4-5.7s-11.1-2.1-18.7-2.1h-20.3v46.9c0 9.5-.2 17.3-.6 23.5s-.8 10.3-1.3 12.4c1.8 0 4.9 0 9.2.1s8.9.2 13.8.2c4.9.1 9.5.2 13.8.2 4.3.1 7.5.1 9.4.1 7 0 13.5-1.4 19.6-4.1 6-2.7 11.3-6.4 15.8-11.1s8.1-9.9 10.9-15.9c2.8-5.9 4.6-12 5.4-18.2l1.4-13c.2-.8.9-1.1 2-1.1 1.1.1 1.6.5 1.5 1.4l-1.6 13.2c-1.2 10-2.2 18.1-3 24.5s-1.4 11.4-1.9 15.2-.9 6.4-1.3 8-.9 2.6-1.4 2.9c-.3.3-1.4.5-3.3.6s-4.3.2-7.4.2c-3.1.1-6.5.1-10.3.1s-7.8 0-12 0c-2.2 0-4.7 0-7.6 0s-6.1 0-9.4 0-6.8-.1-10.3-.2-6.9-.2-10.2-.2c-7.8-.2-15.9-.4-24.4-.6l-34.4.9c-1.5.7-2.1.3-2.1-.4z"/><path d="m1279.7 37.5c0-.7.5-1.1 1.4-1.1 1.6 0 3.8 0 6.6.1s5.5.2 8.2.2c2.7.1 5.2.2 7.4.2 2.2.1 3.8.1 4.8.1.8 0 2.6 0 5.4-.1s5.9-.2 9.3-.2c3.3-.1 6.5-.2 9.4-.2 2.9-.1 4.9-.1 5.9-.1 21.2 0 36.9 3.4 47.2 10.2s15.4 16.7 15.4 29.7c0 5.2-1.5 10-4.4 14.2-2.9 4.3-6.8 8.1-11.7 11.4s-10.5 6.2-16.8 8.5-12.7 4.1-19.2 5.2c5.3.2 9.8.8 13.6 2s7.4 3.3 10.9 6.3c3.4 3 6.8 7.2 10 12.3 3.3 5.2 6.8 11.8 10.7 19.8 5 10.7 9.2 19.2 12.7 25.5s6.6 11.1 9.3 14.3c2.7 3.3 5.5 5.3 8.2 6.3 2.7.9 5.9 1.4 9.7 1.4h1.7c1.3 0 1.9.4 1.9 1.2 0 .6-.6 1-1.9 1h-8.7c-4.2 0-7.6.2-10.3.5-2.6.3-4.8.5-6.7.5-2.8 0-5.1-.4-6.9-1.2s-3.6-2.3-5.5-4.7c-2.6-2.9-5.6-7.4-8.9-13.3s-7.1-13.8-11.3-23.6c-4.5-10.6-8.6-18.9-12.1-25s-7.1-10.7-10.6-13.8-7.4-5-11.7-5.8-9.5-1.3-15.5-1.4h-10v24.7c0 15 .1 26.5.4 34.8.2 8.2.8 14.3 1.8 18.2.9 3.9 2.3 6.2 4.1 7s4.2 1.1 7.2 1.1h4.9c1 0 1.5.4 1.5 1.1s-.5 1.1-1.5 1.1c-1.9 0-4.1 0-6.7-.1s-5.3-.1-8-.1-5.2 0-7.5-.1-3.8-.1-4.6-.1c-.9 0-2.7 0-5.4.1s-5.5.1-8.5.1-5.8 0-8.4.1-4.1.1-4.6.1c-1 0-1.5-.4-1.5-1.1s.5-1.1 1.5-1.1c3.1 0 5.6 0 7.4-.1s3.1-.2 3.9-.5c1.9-1.8 3.1-4.3 3.6-7.3.6-3.1 1-7.9 1.3-14.6.2-3.4.3-7.3.4-11.7s.2-8.8.2-13.4c.1-4.6.1-9 .1-13.2 0-4.3 0-7.7 0-10.4v-32.9c0-14.9-.1-26.5-.4-34.8-.2-8.2-.8-14.3-1.7-18.2s-2.2-6.2-4-7-4.2-1.1-7.1-1.1h-4.4c-1.1.1-1.5-.3-1.5-1zm37.3 77.4c2.3-.2 5.1-.2 8.5-.2h12.1c4.7 0 9.5-.7 14.4-2.2s9.4-3.7 13.4-6.8c4-3 7.3-7 9.8-11.9s3.8-10.7 3.8-17.5c0-12.7-3.3-22.1-9.9-28.4s-17.6-9.4-32.9-9.4h-9.6c-2.3 0-4.1.2-5.4.7s-2.3 1.9-2.8 4.3c-.6 2.4-.9 6-1.1 11-.2 4.9-.2 11.9-.2 20.7v39.7z"/><path d="m30.4 468.3c0-.6.5-1 1.4-1h1c6.5 0 12.4-4.9 17.7-14.7 3.1-5.3 6.1-11.1 8.9-17.5s5.2-12.2 7.2-17.3l47.1-117.6c.2-.5.7-.7 1.7-.7h2.5c1.3 0 2.1.2 2.4.7l44.5 106c6 14.3 11 25.5 14.8 33.6 3.8 8.2 7.1 14.3 9.8 18.3 2.7 4.1 5.1 6.6 7.3 7.6s4.7 1.5 7.7 1.5h1.9c1.1 0 1.7.3 1.8 1 0 .8-.5 1.2-1.6 1.2-1.8 0-4 0-6.4-.1s-4.9-.2-7.3-.2c-2.4-.1-4.6-.2-6.6-.2-1.9-.1-3.4-.1-4.5-.1-1 0-2.7 0-5.2.1s-5.3.2-8.3.2c-3 .1-6 .2-8.9.2-2.9.1-5.3.1-7 .1-1 0-1.6-.4-1.8-1.1-.3-.7.1-1.1 1-1.1h5.1c2.5 0 4.5-.5 6-1.4 1-.7 1.5-2.2 1.6-4.4 0-.9-.1-1.9-.2-3-.6-3.9-2.2-9.8-5-17.6s-7.1-18.5-13-32.1l-28.5.7c-2.9 0-6.5 0-10.8-.1s-8.5-.2-12.8-.2c-4.3-.1-8.3-.2-11.9-.2-3.7-.1-6.4-.1-8.2-.1l-4.2 10.3c-1 2.6-2 5.5-3 8.6-1.1 3.1-2 6.3-2.9 9.6s-1.6 6.5-2 9.6c-.5 3.1-.7 6-.7 8.7 0 8 4.5 12 13.6 12.1 1 0 2.2-.1 3.8-.4s2.6-.4 3.2-.4c1.1 0 1.7.4 1.7 1.3 0 .3-.2.6-.5 1-.3.3-1.2.5-2.5.5-1.1 0-3 0-5.6-.1s-5.4-.1-8.3-.1-5.7 0-8.4-.1-4.5-.1-5.5-.1c-.8 0-2 0-3.6.1s-3.4.1-5.4.1c-1.9 0-4 0-6 .1-2.1.1-3.8.1-5.2.1-1.4-.2-1.9-.6-1.9-1.4zm43.9-61.5 41.5-.2h28.9v-.2l-36.4-85.4z"/><path d="m214.6 469c.3-.8.8-1.7 1.4-2.7l108.9-163.3h-45.8c-14.3.2-26.2 3.9-35.6 11.3s-14.9 18-16.5 31.9l-2.4 25.9c-.1.8-.6 1.2-1.5 1.1-.8-.1-1.3-.5-1.3-1.3l2.6-25.6c1.3-13.2 2.4-23.9 3.3-32.2.8-8.2 1.6-12.5 2.3-12.8.8-.3 2.4-.6 4.7-.7 2.3-.2 4.7-.2 7-.2h8.8c4.4 0 9.5 0 15.1.1 5.7.1 11.7.2 18.1.2 6.4.1 12.3.2 17.7.2 5.4.1 10 .1 13.8.1h6.7c1 0 2.3 0 4.1-.1s3.7-.2 5.8-.2c2.1-.1 4.2-.2 6.3-.2 2.1-.1 4.1-.1 5.9-.1 1 0 1.8.1 2.7.2.8.2.8.9-.1 2.1l-108.1 163.3h6.3c2.9 0 6.2 0 9.9.1s7.5.2 11.5.2c4 .1 7.8.2 11.4.2 3.6.1 6.8.1 9.7.1h6.2c7 0 13.4-1.4 19.3-4.1s11-6.4 15.3-11.1 7.8-9.9 10.4-15.9c2.6-5.9 4.3-12 4.9-18.2l1.7-24.2c.2-.8.9-1.2 2.1-1.1s1.7.6 1.5 1.5l-2 24.4c-.8 9.9-1.5 18.1-2 24.5s-.9 11.5-1.3 15.2c-.3 3.7-.7 6.4-1.1 8s-.8 2.6-1.1 2.9-1.4.5-3.2.6-4.2.2-7.2.2c-3 .1-6.4.1-10.3.1s-7.9 0-12.2 0c-2.2 0-4.8 0-8 0-3.1 0-6.5 0-10 0s-7.3 0-11.2-.1-7.7-.1-11.4-.1c-8.8-.2-18-.3-27.6-.5l-24.1 1.4c-1 0-1.6-.2-1.6-.7.1-.1.1-.2.2-.4z"/><path d="m362.8 468.4c0-.7.5-1.1 1.4-1.1h5.1c2.9 0 5.3-.4 7.1-1.1 1.8-.8 3.1-3.1 4.1-7 .9-3.9 1.5-10 1.7-18.2s.4-19.8.4-34.8v-42.8c0-14.9-.1-26.5-.4-34.8-.2-8.2-.8-14.3-1.7-18.2s-2.3-6.2-4.1-7-4.2-1.1-7.1-1.1h-5.1c-1 0-1.4-.4-1.4-1.1s.5-1.1 1.4-1.1c1.6 0 3.8 0 6.7.1s5.7.2 8.6.2c2.9.1 5.5.2 7.9.2 2.4.1 4 .1 4.8.1 1 0 2.6 0 4.8-.1 2.3-.1 4.8-.2 7.7-.2 2.9-.1 5.6-.2 8.3-.2 2.7-.1 4.9-.1 6.7-.1 1 0 1.4.4 1.4 1.1s-.5 1.1-1.4 1.1h-5.1c-2.9 0-5.3.4-7.1 1.1-1.8.8-3.1 3.1-4 7s-1.4 10-1.7 18.2c-.2 8.2-.4 19.8-.4 34.8v42.8c0 15 .1 26.5.4 34.8.2 8.2.8 14.3 1.7 18.2s2.2 6.2 4 7 4.2 1.1 7.1 1.1h5.1c1 0 1.4.4 1.4 1.1s-.5 1.1-1.4 1.1c-1.8 0-4.1 0-6.7-.1-2.7-.1-5.4-.2-8.3-.2-2.9-.1-5.4-.2-7.7-.2-2.3-.1-3.9-.1-4.8-.1-.8 0-2.4 0-4.8.1s-5 .2-7.9.2c-2.9.1-5.7.2-8.5.2-2.8.1-5.1.1-6.7.1-1 0-1.5-.4-1.5-1.1z"/><path d="m433.9 469c.3-.8.8-1.7 1.4-2.7l108.9-163.3h-45.8c-14.3.2-26.2 3.9-35.6 11.3s-14.9 18-16.5 31.9l-2.4 25.9c-.1.8-.6 1.2-1.5 1.1-.8-.1-1.3-.5-1.3-1.3l2.6-25.6c1.3-13.2 2.4-23.9 3.3-32.2.8-8.2 1.6-12.5 2.3-12.8.8-.3 2.4-.6 4.7-.7 2.3-.2 4.7-.2 7-.2h8.8c4.4 0 9.5 0 15.1.1 5.7.1 11.7.2 18.1.2 6.4.1 12.3.2 17.7.2 5.4.1 10 .1 13.8.1h6.7c1 0 2.3 0 4.1-.1s3.7-.2 5.8-.2c2.1-.1 4.2-.2 6.3-.2 2.1-.1 4.1-.1 5.9-.1 1 0 1.8.1 2.7.2.8.2.8.9-.1 2.1l-108.1 163.3h6.3c2.9 0 6.2 0 9.9.1s7.5.2 11.5.2c4 .1 7.8.2 11.4.2 3.6.1 6.8.1 9.7.1h6.2c7 0 13.4-1.4 19.3-4.1s11-6.4 15.3-11.1 7.8-9.9 10.4-15.9c2.6-5.9 4.3-12 4.9-18.2l1.7-24.2c.2-.8.9-1.2 2.1-1.1s1.7.6 1.5 1.5l-2 24.4c-.8 9.9-1.5 18.1-2 24.5s-.9 11.5-1.3 15.2c-.3 3.7-.7 6.4-1.1 8s-.8 2.6-1.1 2.9-1.4.5-3.2.6-4.2.2-7.2.2c-3 .1-6.4.1-10.3.1s-7.9 0-12.2 0c-2.2 0-4.8 0-8 0-3.1 0-6.5 0-10 0s-7.3 0-11.2-.1-7.7-.1-11.4-.1c-8.8-.2-18-.3-27.6-.5l-24.1 1.4c-1 0-1.6-.2-1.6-.7 0-.1.1-.2.2-.4z"/><path d="m647.4 468.3c0-.6.5-1 1.4-1h1c6.5 0 12.4-4.9 17.7-14.7 3.1-5.3 6.1-11.1 8.9-17.5s5.2-12.2 7.2-17.3l47.1-117.6c.2-.5.7-.7 1.7-.7h2.5c1.3 0 2.1.2 2.4.7l44.5 106c6 14.3 11 25.5 14.8 33.6 3.8 8.2 7.1 14.3 9.8 18.3 2.7 4.1 5.1 6.6 7.3 7.6s4.7 1.5 7.7 1.5h1.9c1.1 0 1.7.3 1.8 1 0 .8-.5 1.2-1.6 1.2-1.8 0-4 0-6.4-.1s-4.9-.2-7.3-.2c-2.4-.1-4.6-.2-6.6-.2-1.9-.1-3.4-.1-4.5-.1-1 0-2.7 0-5.2.1s-5.3.2-8.3.2c-3 .1-6 .2-8.9.2-2.9.1-5.3.1-7 .1-1 0-1.6-.4-1.8-1.1-.3-.7.1-1.1 1-1.1h5.1c2.5 0 4.5-.5 6-1.4 1-.7 1.5-2.2 1.6-4.4 0-.9-.1-1.9-.2-3-.6-3.9-2.2-9.8-5-17.6s-7.1-18.5-13-32.1l-28.5.7c-2.9 0-6.5 0-10.8-.1s-8.5-.2-12.8-.2c-4.3-.1-8.3-.2-11.9-.2-3.7-.1-6.4-.1-8.2-.1l-4.2 10.3c-1 2.6-2 5.5-3 8.6-1.1 3.1-2 6.3-2.9 9.6s-1.6 6.5-2 9.6c-.5 3.1-.7 6-.7 8.7 0 8 4.5 12 13.6 12.1 1 0 2.2-.1 3.8-.4s2.6-.4 3.2-.4c1.1 0 1.7.4 1.7 1.3 0 .3-.2.6-.5 1-.3.3-1.2.5-2.5.5-1.1 0-3 0-5.6-.1s-5.4-.1-8.3-.1-5.7 0-8.4-.1-4.5-.1-5.5-.1c-.8 0-2 0-3.6.1s-3.4.1-5.4.1c-1.9 0-4 0-6 .1-2.1.1-3.8.1-5.2.1-1.4-.2-1.9-.6-1.9-1.4zm43.9-61.5 41.5-.2h28.9v-.2l-36.4-85.4z"/><path d="m830.9 468.4c0-.7.7-1.1 2-1.1 3.6 0 6.4-.3 8.5-.8s3.8-1.8 5.1-3.9 2.3-5.3 2.9-9.7c.6-4.3 1.2-10.4 1.7-18 .3-4.2.6-9.2.7-15.1.1-2.9.1-5.9.1-8.8s-.1-5.9-.1-8.9c-.2-6-.3-11.6-.4-16.8s-.1-9.2-.1-11.9c0-2.8 0-6.3-.1-10.5s-.2-8.6-.2-13.2c-.1-4.6-.2-9-.2-13.4-.1-4.4-.1-8.3-.1-11.7 0-5.6-.1-9.9-.4-12.9-.2-3-.8-5.2-1.8-6.6s-2.5-2.2-4.8-2.4c-2.2-.2-5.3-.4-9.2-.4-1 0-1.4-.4-1.4-1.1s.5-1.1 1.4-1.1c.5 0 2.1 0 5 .1s6 .1 9.3.1 6.5 0 9.5.1 5 .1 6 .1 2.7 0 5.2-.1 5.4-.1 8.5-.1 6.1 0 9.1-.1 5.4-.1 7.2-.1c1 0 1.4.4 1.4 1.1s-.5 1.1-1.4 1.1h-6.8c-4.2 0-7.4.4-9.7 1.1-2.2.8-3.9 3.1-5.1 7s-1.8 10-2 18.2-.2 19.8-.2 34.8v66.7c0 9.5-.2 17.3-.6 23.5s-.8 10.3-1.3 12.4c1.8 0 4.9 0 9.3.1s9 .2 13.9.2c4.9.1 9.5.2 13.9.2 4.4.1 7.6.1 9.5.1 7 0 13.4-1.7 19.3-5.2s11-8 15.4-13.4 7.9-11.5 10.6-18.1 4.5-13 5.2-19.2l2.4-22.2c.2-.8.8-1.1 1.9-1.1 1.1.1 1.6.5 1.4 1.4l-2.6 22.5c-1.2 10.3-2.2 18.9-3 25.9s-1.5 12.7-2 17.2-1 7.8-1.5 9.9-1 3.4-1.4 3.7c-.3.3-1.4.6-3.2.7-1.8.2-4.2.3-7.1.4-3 .1-6.4.2-10.2.2-3.8.1-7.9.1-12.2.1-2.2 0-4.7 0-7.6 0s-6 0-9.3 0-6.6-.1-10.1-.2c-3.4-.1-6.8-.2-10.1-.2-7.8-.2-15.8-.4-24-.6l-34.5.9c-1 .2-1.7-.2-1.7-.9z"/><path d="m982.3 383.9c0-12.6 2.3-24.2 7-34.8s11-19.7 18.9-27.2c7.9-7.6 17-13.5 27.3-17.7 10.3-4.3 21.1-6.4 32.3-6.4 11.3 0 22.1 2.2 32.5 6.5s19.5 10.3 27.3 18c7.8 7.6 14 16.7 18.7 27.3 4.6 10.6 6.9 22 6.9 34.4 0 11.5-2.1 22.2-6.2 32-4.1 9.9-9.8 18.5-16.9 25.9s-15.4 13.5-24.7 18.3c-9.4 4.8-19.3 7.8-29.7 8.9 0 6.4.3 12.1.8 17.2.6 5.1 1.7 9.5 3.4 13 1.7 3.6 4.1 6.3 7.2 8.2s7.2 2.8 12.2 2.8c3.9 0 7.6-1.9 10.9-5.6 3.4-3.7 6.4-8.5 9.1-14.2.5-1 1.2-1.2 2.3-.8s1.3 1.1.7 2.3c-2 3.3-4.2 6.4-6.8 9.5-2.5 3.1-5.3 5.8-8.4 8.1s-6.5 4.1-10.2 5.5-7.5 2-11.4 2c-10 0-17.3-3.8-21.9-11.3s-6.9-19.9-6.9-36.9c-10.3-1.3-20-4.3-29.1-9s-17.1-10.8-23.7-18.3c-6.7-7.5-12-16.1-15.9-25.9-3.7-9.9-5.7-20.5-5.7-31.8zm22 0c0 12.4 1.4 23.7 4.1 34 2.7 10.2 6.7 19.1 12 26.5 5.2 7.4 11.7 13.1 19.3 17.2 7.7 4.1 16.4 6.1 26.2 6.1s18.8-2 26.8-6.1 14.9-9.8 20.8-17.2c5.8-7.4 10.3-16.2 13.4-26.5 3.1-10.2 4.7-21.6 4.7-34s-1.4-23.7-4.3-34c-2.8-10.2-7-19-12.4-26.3s-12-13-19.8-17c-7.8-4.1-16.6-6.1-26.5-6.1-9.8 0-18.6 2-26.5 6.1s-14.7 9.7-20.3 17-10 16.1-13 26.3c-3 10.3-4.5 21.6-4.5 34z"/><path d="m1139.4 468.3c0-.6.5-1 1.4-1h1c6.5 0 12.4-4.9 17.7-14.7 3.1-5.3 6.1-11.1 8.9-17.5s5.2-12.2 7.2-17.3l47.1-117.6c.2-.5.7-.7 1.7-.7h2.5c1.3 0 2.1.2 2.4.7l44.5 106c6 14.3 11 25.5 14.8 33.6 3.8 8.2 7.1 14.3 9.8 18.3 2.7 4.1 5.1 6.6 7.3 7.6s4.8 1.5 7.7 1.5h1.9c1.1 0 1.7.3 1.8 1 0 .8-.5 1.2-1.6 1.2-1.8 0-4 0-6.4-.1s-4.9-.2-7.3-.2c-2.4-.1-4.6-.2-6.6-.2-2-.1-3.4-.1-4.5-.1-1 0-2.7 0-5.2.1s-5.3.2-8.3.2c-3 .1-6 .2-8.9.2-2.9.1-5.3.1-7 .1-1 0-1.6-.4-1.8-1.1-.3-.7.1-1.1 1-1.1h5.1c2.5 0 4.5-.5 6-1.4 1-.7 1.5-2.2 1.6-4.4 0-.9-.1-1.9-.2-3-.6-3.9-2.2-9.8-5-17.6s-7.1-18.5-13-32.1l-28.5.7c-2.9 0-6.5 0-10.8-.1s-8.5-.2-12.8-.2c-4.3-.1-8.3-.2-11.9-.2-3.7-.1-6.4-.1-8.2-.1l-4.2 10.3c-1 2.6-2 5.5-3 8.6-1.1 3.1-2 6.3-2.9 9.6s-1.6 6.5-2 9.6c-.5 3.1-.7 6-.7 8.7 0 8 4.5 12 13.6 12.1 1 0 2.2-.1 3.8-.4s2.6-.4 3.2-.4c1.1 0 1.7.4 1.7 1.3 0 .3-.2.6-.5 1-.3.3-1.2.5-2.5.5-1.1 0-3 0-5.6-.1s-5.4-.1-8.3-.1-5.7 0-8.4-.1-4.5-.1-5.5-.1c-.8 0-2 0-3.6.1s-3.4.1-5.4.1-4 0-6 .1c-2.1.1-3.8.1-5.2.1-1.4-.2-1.9-.6-1.9-1.4zm43.9-61.5 41.5-.2h28.9v-.2l-36.4-85.3z"/><path d="m1287.1 363.9 2-13.8c.8-6.5 1.3-12.8 1.6-18.9.2-6.1.4-11.4.5-16.1s.1-8.4.1-11.2.2-4.3.5-4.4c.8-.3 3.9-.7 9.2-1.1s12.2-.6 20.6-.6c1.4 0 3.8 0 7.2.1 3.3.1 7 .1 10.9.1s7.8 0 11.6.1 7.1.1 9.9.1c2.6 0 5 0 7.2-.1s4.6-.1 7.3-.1 5.9 0 9.8-.1 8.9-.1 15.1-.1h.2c8.4 0 15.3.2 20.6.6s8.3.8 9.1 1.2c.3.2.5 1.6.5 4.4s.1 6.5.2 11.2.2 10 .5 16.1c.2 6.1.8 12.4 1.8 18.9l1.7 13.8c.1.2.1.4.1.6 0 .5-.2.7-.7.7-.7 0-1.2-.4-1.6-1.2l-2.3-13.8c-1.3-8-2.8-15.1-4.7-21.3s-4.4-11.5-7.5-15.7c-3.1-4.3-7-7.5-11.6-9.8s-10.2-3.4-16.6-3.4h-19.6v106.4c0 15 .1 26.6.4 34.8.2 8.2.8 14.3 1.7 18.2s2.2 6.2 4 7 4.2 1.1 7.1 1.1h4.4c1 0 1.4.4 1.4 1.1s-.5 1.1-1.4 1.1c-1.8 0-4.1 0-6.7-.1-2.7-.1-5.4-.2-8.1-.2-2.7-.1-5.2-.2-7.5-.2-2.3-.1-3.8-.1-4.6-.1-1 0-2.6 0-4.9.1s-4.8.2-7.5.2c-2.7.1-5.4.2-8.2.2-2.8.1-5 .1-6.6.1-1 0-1.5-.4-1.5-1.1s.5-1.1 1.5-1.1h4.3c2.9 0 5.3-.4 7.1-1.1 1.8-.8 3.1-3.1 4.1-7 .9-3.9 1.5-10 1.7-18.2s.4-19.8.4-34.8v-106.6c-3.4.2-7 .2-10.6.2s-6.8 0-9.6 0c-6.6 0-12.1 1.1-16.7 3.3s-8.4 5.4-11.5 9.7-5.6 9.5-7.6 15.6c-2 6.2-3.6 13.3-4.7 21.3l-1.9 13.8c-.3.9-.8 1.3-1.5 1.3-.6 0-.8-.2-.8-.7.1-.1.1-.2.2-.5z"/><path d="m1410.2 468.3c0-.6.5-1 1.4-1h1c6.5 0 12.4-4.9 17.7-14.7 3.1-5.3 6.1-11.1 8.9-17.5s5.2-12.2 7.2-17.3l47.1-117.6c.2-.5.7-.7 1.7-.7h2.5c1.3 0 2.1.2 2.4.7l44.5 106c6 14.3 11 25.5 14.8 33.6 3.8 8.2 7.1 14.3 9.8 18.3 2.7 4.1 5.1 6.6 7.3 7.6s4.7 1.5 7.7 1.5h1.9c1.1 0 1.7.3 1.8 1 0 .8-.5 1.2-1.6 1.2-1.8 0-4 0-6.4-.1s-4.8-.2-7.3-.2c-2.4-.1-4.6-.2-6.6-.2-1.9-.1-3.4-.1-4.5-.1-1 0-2.7 0-5.2.1s-5.3.2-8.3.2c-3 .1-6 .2-8.9.2-2.9.1-5.3.1-7 .1-1 0-1.6-.4-1.9-1.1s.1-1.1 1-1.1h5.1c2.5 0 4.5-.5 6-1.4 1-.7 1.5-2.2 1.6-4.4 0-.9-.1-1.9-.2-3-.6-3.9-2.2-9.8-5-17.6s-7.1-18.5-13-32.1l-28.5.7c-2.9 0-6.5 0-10.8-.1s-8.5-.2-12.8-.2c-4.3-.1-8.3-.2-11.9-.2-3.7-.1-6.4-.1-8.2-.1l-4.2 10.3c-1 2.6-2 5.5-3 8.6-1.1 3.1-2.1 6.3-2.9 9.6s-1.6 6.5-2 9.6c-.5 3.1-.7 6-.7 8.7 0 8 4.5 12 13.6 12.1 1 0 2.2-.1 3.8-.4 1.5-.3 2.6-.4 3.2-.4 1.1 0 1.7.4 1.7 1.3 0 .3-.2.6-.5 1-.3.3-1.2.5-2.5.5-1.1 0-3 0-5.6-.1s-5.4-.1-8.3-.1-5.7 0-8.4-.1-4.5-.1-5.5-.1c-.8 0-2 0-3.6.1s-3.4.1-5.4.1-4 0-6 .1c-2.1.1-3.8.1-5.2.1-1.3-.2-1.8-.6-1.8-1.4zm43.9-61.5 41.5-.2h28.9v-.2l-36.4-85.3z"/><path d="m1593.1 301.1c0-.6.4-.8 1.3-.8 6.4 0 11.5-.1 15.4-.2 3.9-.2 6.9-.4 9.1-.7s3.7-.5 4.7-.7c.9-.2 1.6-.2 2.1-.2 1.1 0 1.9.5 2.4 1.6.8 1.6 2.2 3.9 4.2 6.9s3.9 5.8 5.6 8.2l58.9 86.7 49.6-77.2c5.6-9 9.6-15.6 12.1-19.9s4.9-6.4 7.1-6.4c1 0 2.8.1 5.4.2 2.6.2 5.5.4 8.6.7s6.1.5 8.9.7 4.7.2 5.6.2 1.4.4 1.4 1.1-.5 1.1-1.5 1.1h-3.7c-3 0-5.4.4-7.2 1.1-1.8.8-3.2 3.1-4 7-.9 3.9-1.5 10-1.7 18.2s-.4 19.8-.4 34.8v42.8c0 15 .1 26.5.4 34.8.2 8.2.8 14.3 1.7 18.2s2.2 6.2 4 7 4.2 1.1 7.2 1.1h3.7c1 0 1.5.4 1.5 1.1s-.5 1.1-1.4 1.1c-1.9 0-4.1 0-6.7-.1s-5.2-.2-7.9-.2c-2.7-.1-5.1-.2-7.2-.2-2.2-.1-3.6-.1-4.4-.1-.9 0-2.6 0-4.8.1-2.3.1-4.8.2-7.5.2-2.7.1-5.5.2-8.3.2-2.8.1-5 .1-6.7.1-1.1 0-1.7-.4-1.7-1.1s.5-1.1 1.4-1.1h5c3 0 5.4-.4 7.2-1.1 1.8-.8 3.2-3.1 4.1-7s1.5-10 1.8-18.2c.2-8.2.4-19.8.4-34.8v-86.5c0-4.7-.7-6.2-2.1-4.4s-3.9 5.3-7.5 10.7l-57.6 90.2c-.6 1.1-1.4 1.7-2.3 1.7h-2.1c-.6 0-1.3-.6-1.9-1.7l-67.3-98-.2 88c0 10.1.3 18.6 1 25.4s1.6 12.5 2.8 17.1 2.6 8.1 4.4 10.6c1.7 2.5 3.6 4.4 5.5 5.5 2 1.1 4 1.8 6 2.1s4 .4 5.9.4h3.5c.8 0 1.2.4 1.2 1.1s-.4 1.1-1.2 1.1c-1.8 0-4.4 0-7.6 0s-6.5-.1-9.8-.2c-3.3-.2-6.4-.3-9.2-.4s-4.7-.1-5.6-.1c-1.8 0-4.7.1-8.7.4-4 .2-7.7.4-11.1.4-.8 0-1.3-.4-1.4-1.1s.4-1.1 1.6-1.1h1.4c2.8 0 5.3-.5 7.5-1.5s4.1-3.5 5.6-7.5c1.6-4 2.8-10 3.7-18.2.9-8.1 1.4-19.5 1.4-33.9 0-7 0-14.7 0-23s0-16.5.1-24.5.1-15.3.1-21.9 0-11.6 0-15c0-4.5-1.1-8-3.2-10.5-2.1-2.3-4.6-4.4-7.2-6.4-2.7-2-5.5-2.9-8.6-2.9h-1.2c-1.2-.1-1.6-.4-1.6-1.1z"/><path d="m1804.7 468.4c0-.7.5-1.1 1.4-1.1h5.1c2.9 0 5.3-.4 7.1-1.1 1.8-.8 3.1-3.1 4.1-7 .9-3.9 1.5-10 1.7-18.2s.4-19.8.4-34.8v-42.8c0-14.9-.1-26.5-.4-34.8-.2-8.2-.8-14.3-1.7-18.2s-2.3-6.2-4.1-7-4.2-1.1-7.1-1.1h-5.1c-1 0-1.4-.4-1.4-1.1s.5-1.1 1.4-1.1c1.6 0 3.8 0 6.7.1s5.7.2 8.6.2c2.9.1 5.5.2 7.9.2 2.4.1 4 .1 4.8.1 1 0 2.6 0 4.8-.1 2.3-.1 4.8-.2 7.7-.2 2.9-.1 5.6-.2 8.3-.2 2.7-.1 4.9-.1 6.7-.1 1 0 1.4.4 1.4 1.1s-.5 1.1-1.4 1.1h-5.1c-2.9 0-5.3.4-7.1 1.1-1.8.8-3.1 3.1-4 7s-1.4 10-1.7 18.2c-.2 8.2-.4 19.8-.4 34.8v42.8c0 15 .1 26.5.4 34.8.2 8.2.8 14.3 1.7 18.2s2.2 6.2 4 7 4.2 1.1 7.1 1.1h5.1c1 0 1.4.4 1.4 1.1s-.5 1.1-1.4 1.1c-1.8 0-4.1 0-6.7-.1-2.7-.1-5.4-.2-8.3-.2-2.9-.1-5.4-.2-7.7-.2-2.3-.1-3.9-.1-4.8-.1-.8 0-2.4 0-4.8.1s-5 .2-7.9.2c-2.9.1-5.7.2-8.5.2-2.8.1-5.1.1-6.7.1-1 0-1.5-.4-1.5-1.1z"/></svg>